<?xml version="1.0" encoding="utf-8"?>
<!-- Generator: Adobe Illustrator 17.1.0, SVG Export Plug-In . SVG Version: 6.00 Build 0)  -->
<!DOCTYPE svg PUBLIC "-//W3C//DTD SVG 1.1//EN" "http://www.w3.org/Graphics/SVG/1.1/DTD/svg11.dtd">
<svg version="1.1" id="Layer_1" xmlns="http://www.w3.org/2000/svg" xmlns:xlink="http://www.w3.org/1999/xlink" x="0px" y="0px"
	 viewBox="0 0 216 216" enable-background="new 0 0 216 216" xml:space="preserve">
<g>
	<path fill="#D1DD26" d="M114.771,130.85L114.771,130.85c-0.103,0.261-0.249,0.491-0.426,0.68
		C114.521,131.341,114.668,131.111,114.771,130.85z"/>
	<path fill="#D1DD26" d="M114.384,128.481c0.174,0.198,0.31,0.442,0.406,0.713h0C114.694,128.923,114.558,128.678,114.384,128.481z"
		/>
	<path fill="#D1DD26" d="M114.585,131.93c0.143,0.324,0.249,0.723,0.304,0.953C114.834,132.653,114.728,132.254,114.585,131.93z"/>
	<path fill="#D1DD26" d="M158.421,100.366c-0.526,0.5-1.105,0.85-1.657,1.096C157.317,101.216,157.895,100.866,158.421,100.366z"/>
	<path fill="#D1DD26" d="M158.927,90.592c0.804,1.009,1.388,2.476,1.388,4.611c0,2.135-0.584,3.602-1.388,4.611
		c0.804-1.009,1.388-2.476,1.388-4.611C160.315,93.068,159.731,91.601,158.927,90.592z"/>
	<path fill="#D1DD26" d="M156.764,101.461c-0.552,0.245-1.078,0.385-1.499,0.465C155.686,101.847,156.212,101.707,156.764,101.461z"
		/>
	<path fill="#D1DD26" d="M156.764,88.944c0.552,0.245,1.131,0.595,1.657,1.096C157.895,89.539,157.317,89.189,156.764,88.944z"/>
	<path fill="#FFFFFF" d="M114.892,127.155c-0.051,0.224-0.15,0.613-0.283,0.931C114.743,127.768,114.842,127.379,114.892,127.155z"
		/>
	<path fill="#D1DD26" d="M155.265,88.479c0.421,0.08,0.947,0.22,1.499,0.465C156.212,88.699,155.686,88.559,155.265,88.479z"/>
	<path fill="#D1DD26" d="M140.541,77.362l-57.996-0.006c-2.546,0-4.939,0.992-6.74,2.792c-1.8,1.8-2.791,4.194-2.79,6.74
		l0.004,29.939c0,5.552,4.33,9.857,9.85,9.857l23.863,0.151l0.086,0.448c0.055,0.289,0.149,0.698,0.295,1.112
		c-0.109,0.255-0.19,0.523-0.244,0.799H87.946l-10.12,9.685h66.103l-9.07-9.685h-18.351c-0.055-0.276-0.135-0.544-0.244-0.799
		c0.146-0.414,0.24-0.822,0.295-1.112l0.086-0.448h23.465c5.705,0,10.252-4.664,10.252-10.263l-0.003-29.394
		C150.356,81.765,145.951,77.362,140.541,77.362z M140.109,137.223H81.953l6.658-6.373h18.27c0.058,0.267,0.14,0.525,0.25,0.771
		c-0.153,0.418-0.252,0.829-0.311,1.123l-0.4,1.984h2.024h6.488h2.024l-0.4-1.984c-0.059-0.294-0.158-0.705-0.311-1.123
		c0.11-0.246,0.192-0.504,0.25-0.771h17.647L140.109,137.223z M114.931,129.989c0,0.311-0.059,0.602-0.161,0.861h0
		c-0.103,0.261-0.249,0.491-0.426,0.68c0.088,0.094,0.169,0.238,0.24,0.4c0.143,0.324,0.249,0.723,0.304,0.953
		c0.027,0.115,0.042,0.188,0.042,0.188h-6.488c0,0,0.092-0.455,0.246-0.888c0.093-0.26,0.208-0.512,0.34-0.653
		c-0.176-0.188-0.323-0.418-0.425-0.678c-0.103-0.26-0.161-0.551-0.161-0.863c0-0.603,0.217-1.133,0.548-1.509
		c-0.331-0.376-0.548-1.508-0.548-1.508h6.488c0,0-0.014,0.071-0.039,0.183c-0.051,0.224-0.15,0.613-0.283,0.931
		c-0.067,0.159-0.143,0.3-0.225,0.394c0.174,0.198,0.31,0.442,0.406,0.713h0C114.876,129.438,114.931,129.703,114.931,129.989z
		 M140.224,125.054H82.902c-0.757,0-1.476-0.136-2.173-0.328l-0.011-33.956c0-3.268,2.659-5.928,5.928-5.928h50.084
		c3.268,0,5.927,2.659,5.927,5.928l0.011,33.883C141.888,124.888,141.079,125.054,140.224,125.054z M144.313,90.769
		c0-4.182-3.402-7.584-7.583-7.584H86.646c-4.182,0-7.584,3.403-7.584,7.584l0.01,33.294c-2.601-1.383-4.397-4.09-4.397-7.236
		l-0.004-29.939c0-2.104,0.819-4.081,2.306-5.569c1.487-1.487,3.465-2.307,5.569-2.307l57.995,0.006
		c4.499,0,8.159,3.661,8.161,8.159l0.003,29.394c0,3.182-1.782,5.927-4.381,7.378L144.313,90.769z"/>
	<path fill="#D1DD26" d="M61.402,95.203c0,8.39,7.565,8.487,7.642,8.487H70.7v-1.656V88.372v-1.656h-1.656
		C68.968,86.716,61.402,86.813,61.402,95.203z M69.044,102.033c0,0-0.374,0-0.935-0.107c-0.421-0.08-0.947-0.22-1.499-0.465
		c-0.184-0.082-0.371-0.175-0.558-0.282c-0.374-0.213-0.748-0.48-1.099-0.814c-0.175-0.167-0.345-0.35-0.506-0.552
		c-0.804-1.009-1.388-2.476-1.388-4.611c0-2.135,0.584-3.602,1.388-4.611c0.161-0.202,0.33-0.385,0.506-0.552
		c0.351-0.334,0.725-0.6,1.099-0.814c0.187-0.107,0.374-0.2,0.558-0.282c0.552-0.245,1.078-0.385,1.499-0.465
		c0.561-0.107,0.935-0.107,0.935-0.107V102.033z"/>
	<path fill="#D1DD26" d="M154.33,86.716h-1.656v1.656v13.661v1.656h1.656c0.076,0,7.642-0.097,7.642-8.487
		C161.972,86.813,154.406,86.716,154.33,86.716z M158.927,99.814c-0.161,0.202-0.33,0.385-0.506,0.552
		c-0.526,0.5-1.105,0.85-1.657,1.096c-0.552,0.245-1.078,0.385-1.499,0.465c-0.561,0.107-0.935,0.107-0.935,0.107V88.372
		c0,0,0.374,0,0.935,0.107c0.421,0.08,0.947,0.22,1.499,0.465c0.552,0.245,1.131,0.595,1.657,1.096
		c0.175,0.167,0.345,0.35,0.506,0.552c0.804,1.009,1.388,2.476,1.388,4.611C160.315,97.337,159.731,98.805,158.927,99.814z"/>
	<path fill="#D1DD26" d="M127.061,90c-6.636,0-12.034,5.398-12.034,12.034c0,6.636,5.398,12.034,12.034,12.034
		c6.636,0,12.034-5.398,12.034-12.034C139.095,95.398,133.696,90,127.061,90z M127.061,112.411c-5.731,0-10.377-4.646-10.377-10.377
		c0-5.731,4.646-10.377,10.377-10.377s10.377,4.646,10.377,10.377C137.438,107.765,132.792,112.411,127.061,112.411z"/>
	<path fill="#D1DD26" d="M127.145,93.438c-4.74,0-8.595,3.856-8.595,8.595c0,4.74,3.856,8.596,8.595,8.596s8.596-3.856,8.596-8.596
		C135.741,97.294,131.885,93.438,127.145,93.438z M133.261,98.825h-2.608v-2.744C131.761,96.736,132.659,97.683,133.261,98.825z
		 M129.411,98.825h-4.398v-3.36c0.676-0.22,1.384-0.37,2.133-0.37c0.797,0,1.552,0.163,2.265,0.411V98.825z M129.411,100.067v4.321
		h-4.398v-4.321H129.411z M123.77,96.009v2.816h-2.74C121.655,97.639,122.604,96.665,123.77,96.009z M123.77,100.067v4.321h-3.124
		c-0.269-0.739-0.439-1.524-0.439-2.354c0-0.687,0.131-1.339,0.318-1.966H123.77z M123.77,105.63v2.429
		c-1.038-0.584-1.909-1.414-2.529-2.429H123.77z M125.012,108.603v-2.972h4.398v2.931c-0.714,0.249-1.468,0.411-2.265,0.411
		C126.396,108.973,125.688,108.823,125.012,108.603z M130.653,107.987v-2.357h2.397
		C132.456,106.602,131.634,107.406,130.653,107.987z M134.085,102.033c0,0.83-0.171,1.616-0.439,2.354h-2.993v-4.321h3.113
		C133.953,100.695,134.085,101.346,134.085,102.033z"/>
	<path fill="#D1DD26" d="M96.325,90c-6.636,0-12.034,5.398-12.034,12.034c0,6.636,5.398,12.034,12.034,12.034
		c6.636,0,12.034-5.398,12.034-12.034C108.359,95.398,102.961,90,96.325,90z M99.411,111.944c-0.325,0.101-0.657,0.187-0.995,0.256
		c-0.676,0.138-1.375,0.211-2.091,0.211c-0.716,0-1.416-0.073-2.091-0.211c-0.338-0.069-0.67-0.155-0.995-0.256
		c-4.224-1.314-7.291-5.254-7.291-9.911c0-4.657,3.067-8.597,7.291-9.911c0.325-0.101,0.657-0.187,0.995-0.256
		c0.676-0.138,1.375-0.211,2.091-0.211c0.716,0,1.416,0.073,2.091,0.211c0.338,0.069,0.669,0.155,0.995,0.256
		c4.224,1.314,7.292,5.254,7.292,9.911C106.703,106.69,103.636,110.63,99.411,111.944z"/>
	<path fill="#D1DD26" d="M105.005,102.033c0-4.74-3.856-8.595-8.595-8.595c-4.74,0-8.596,3.856-8.596,8.595
		c0,4.74,3.856,8.596,8.596,8.596C101.149,110.629,105.005,106.773,105.005,102.033z M103.348,102.033
		c0,0.83-0.171,1.616-0.439,2.354h-2.992v-4.321h3.112C103.217,100.695,103.348,101.346,103.348,102.033z M98.675,104.388h-4.398
		v-4.321h4.398V104.388z M99.918,98.825v-2.744c1.107,0.655,2.006,1.603,2.607,2.744H99.918z M98.675,95.506v3.319h-4.398v-3.36
		c0.676-0.22,1.384-0.37,2.133-0.37C97.207,95.095,97.961,95.257,98.675,95.506z M93.035,96.008v2.816h-2.741
		C90.919,97.639,91.868,96.665,93.035,96.008z M93.035,100.067v4.321h-3.125c-0.269-0.739-0.439-1.524-0.439-2.354
		c0-0.687,0.131-1.339,0.318-1.966H93.035z M93.035,105.63v2.429c-1.039-0.584-1.909-1.414-2.53-2.429H93.035z M94.277,105.63h4.398
		v2.931c-0.714,0.249-1.468,0.412-2.265,0.412c-0.749,0-1.457-0.15-2.133-0.37V105.63z M99.918,107.987v-2.356h2.397
		C101.72,106.602,100.899,107.406,99.918,107.987z"/>
</g>
</svg>
