<?xml version="1.0" encoding="utf-8"?>
<!-- Generator: Adobe Illustrator 17.1.0, SVG Export Plug-In . SVG Version: 6.00 Build 0)  -->
<!DOCTYPE svg PUBLIC "-//W3C//DTD SVG 1.1//EN" "http://www.w3.org/Graphics/SVG/1.1/DTD/svg11.dtd">
<svg version="1.1" id="Layer_1" xmlns="http://www.w3.org/2000/svg" xmlns:xlink="http://www.w3.org/1999/xlink" x="0px" y="0px"
	 viewBox="0 0 360 170.407" enable-background="new 0 0 360 170.407" xml:space="preserve">
<g>
	<path fill="#58595B" d="M170.414,59.03h2.354v1.041c0,4.934,2.687,9.046,7.894,9.046c3.783,0,7.894-2.25,7.894-9.046V34.526h-6.082
		v-2.192h8.524v2.192h-0.087v25.928c0,8.065-5.261,10.906-10.249,10.906c-4.988,0-10.249-2.841-10.249-10.906V59.03z"/>
	<path fill="#58595B" d="M231.607,31.68c10.69,0,19.403,8.551,19.403,19.566c0,11.293-8.713,20.114-19.403,20.114
		c-10.69,0-19.407-8.822-19.407-20.114C212.2,40.231,220.918,31.68,231.607,31.68z M231.607,69.117
		c9.375,0,16.94-7.784,16.94-17.871c0-9.811-7.565-17.321-16.94-17.321c-9.372,0-16.935,7.51-16.935,17.321
		C214.672,61.333,222.236,69.117,231.607,69.117z"/>
	<path fill="#58595B" d="M302.02,32.392v38.109h-2.357v-1.982V52.566h-24.336v15.954v2.126h-2.36V32.323h2.36v2.203v15.846h24.336
		V34.526v-2.134H302.02z"/>
	<path fill="#58595B" d="M358.62,32.347v38.358h-2.195l-23.842-32.829c-0.492-0.717-1.042-1.979-1.042-1.979h-0.108
		c0,0,0.217,1.43,0.16,2.251v30.371v2.267h-2.355V32.334h2.136l23.903,32.78c0.492,0.713,1.041,1.975,1.041,1.975h0.107
		c0,0-0.216-1.427-0.16-2.248V34.526v-2.179"/>
	<path fill="#404041" d="M36.381,135.742l-2.529-29.704c-0.056-0.984,0.109-2.742,0.109-2.742h-0.109c0,0-0.44,1.645-0.824,2.578
		l-10.249,22.58h-3.563l-10.303-22.58c-0.384-0.933-0.768-2.578-0.768-2.578H7.979c0,0,0.165,1.757,0.109,2.742l-2.415,29.704H2.104
		l2.912-38.47h3.95l11.181,25.21c0.495,1.26,0.77,2.246,0.77,2.246h0.109c0,0,0.275-0.986,0.821-2.246l11.18-25.133h3.839
		l3.228,38.393"/>
	<path fill="#404041" d="M87.322,135.803H65.788v-3.176V97.273h21.487v3.284H69.622v14.196h14.582v3.292H69.622v14.467l17.7-0.063"
		/>
	<path fill="#404041" d="M112.949,136.01V97.843h11.457c2.63,0,4.714,0,6.851,0.714c3.783,1.372,6.248,4.55,6.248,9.644
		c0,5.761-3.289,9.978-8.55,10.908v0.115c0,0,0.712,0.489,1.316,1.587l6.412,10.961c0.604,1.098,1.316,1.263,2.743,1.263h1.093
		v3.178h-2.08c-3.345,0-3.948-0.496-5.319-2.907l-6.466-11.071c-1.041-1.862-1.808-2.354-4.333-2.354h-5.534v16.128H112.949z
		 M125.829,116.587c4.659,0,7.785-3.176,7.785-8.11c0-3.503-1.536-5.756-4.22-6.797c-1.318-0.497-3.126-0.713-5.098-0.713h-7.512
		v15.62H125.829z"/>
	<path fill="#404041" d="M161.266,136.15V97.678h11.456c2.631,0,4.714,0.165,6.85,0.879c3.786,1.372,6.248,4.55,6.248,9.644
		c0,5.761-3.289,9.978-8.549,10.908v0.115c0,0,0.712,0.489,1.315,1.587l6.414,10.961c0.603,1.098,1.316,1.263,2.742,1.263h1.097
		v3.178h-2.084c-3.343,0-3.946-0.496-5.317-2.907l-6.468-11.071c-1.041-1.862-1.809-2.354-4.332-2.354h-5.533l-0.034,16.268H161.266
		z M174.147,116.587c4.656,0,7.784-3.176,7.784-8.11c0-3.503-1.538-5.756-4.22-6.797c-1.32-0.497-3.127-0.713-5.099-0.713h-7.509
		v15.62H174.147z"/>
	<path fill="#404041" d="M276.399,135.733h-22.407v-3.181V97.281h3.838v35.162h18.569"/>
	<path fill="#404041" d="M338.8,125.061v2.795c0,3.232,4.002,5.096,8.44,5.096c4.993,0,8.61-2.466,8.61-6.954
		c0-5.047-4.661-6.8-9.649-8.668c-5.041-1.921-10.307-3.946-10.307-10.688c0-6.742,5.431-10.029,11.73-10.029
		c5.485,0,11.131,2.137,11.131,6.03v4.111h-3.673v-2.851c0-2.466-4.002-3.784-7.457-3.784c-4.385,0-7.781,2.137-7.781,6.25
		c0,4.659,4.166,6.138,8.823,7.95c5.589,2.076,11.128,4.215,11.128,11.289c0,6.8-5.426,10.853-12.554,10.853
		c-5.533,0-12.115-2.464-12.115-7.725v-3.675H338.8z"/>
	<path fill="#404041" d="M229.597,135.803h-21.535v-3.176V97.273h21.485v3.284h-17.652v14.196h14.583v3.292h-14.583v14.467
		l17.701-0.063"/>
	<path fill="#404041" d="M319.822,135.733h-22.406v-3.181V97.281h3.835v35.162h18.57"/>
	<g>
		<line fill="#404041" x1="2.194" y1="167.529" x2="360" y2="167.529"/>
		<rect x="2.194" y="166.987" fill="#404041" width="357.806" height="1.085"/>
	</g>
	<path fill="#F47F28" d="M20.484,77.459l78.344-64.633l5.214,26.073l64.329-36.88L88.935,73.545L81.097,45.66L20.484,77.459z
		 M82.486,42.438l7.613,27.089l61.412-55.297l-49.032,28.11l-5.092-25.464L38.313,65.612L82.486,42.438z"/>
</g>
</svg>
