<?xml version="1.0" encoding="utf-8"?>
<!-- Generator: Adobe Illustrator 17.1.0, SVG Export Plug-In . SVG Version: 6.00 Build 0)  -->
<!DOCTYPE svg PUBLIC "-//W3C//DTD SVG 1.1//EN" "http://www.w3.org/Graphics/SVG/1.1/DTD/svg11.dtd">
<svg version="1.1" id="Layer_1" xmlns="http://www.w3.org/2000/svg" xmlns:xlink="http://www.w3.org/1999/xlink" x="0px" y="0px"
	 viewBox="0 0 360 140.698" enable-background="new 0 0 360 140.698" xml:space="preserve">
<path fill="#58595B" d="M171.112,30.166h2.347v1.037c0,4.918,2.679,9.017,7.869,9.017c3.77,0,7.868-2.242,7.868-9.017V5.74h-6.062
	V3.555h8.496V5.74h-0.086v25.846c0,8.039-5.244,10.872-10.216,10.872c-4.972,0-10.216-2.832-10.216-10.872V30.166z"/>
<path fill="#58595B" d="M232.11,2.903c10.656,0,19.341,8.524,19.341,19.504c0,11.257-8.685,20.05-19.341,20.05
	c-10.656,0-19.346-8.794-19.346-20.05C212.765,11.426,221.454,2.903,232.11,2.903z M232.11,40.221
	c9.345,0,16.886-7.76,16.886-17.814c0-9.78-7.541-17.266-16.886-17.266c-9.342,0-16.881,7.486-16.881,17.266
	C215.229,32.461,222.768,40.221,232.11,40.221z"/>
<path fill="#58595B" d="M302.299,3.612V41.6h-2.349v-1.975V23.722h-24.259v15.903v2.119h-2.353v-38.2h2.353V5.74v15.796h24.259V5.74
	V3.612H302.299z"/>
<path fill="#58595B" d="M358.719,3.567v38.236h-2.188L332.765,9.078c-0.491-0.714-1.039-1.972-1.039-1.972h-0.107
	c0,0,0.216,1.426,0.16,2.244v30.275v2.26h-2.348V3.555h2.129l23.827,32.675c0.491,0.711,1.037,1.969,1.037,1.969h0.107
	c0,0-0.216-1.423-0.16-2.241V5.74V3.567"/>
<path fill="#404041" d="M37.505,106.634l-2.521-29.61c-0.056-0.981,0.109-2.733,0.109-2.733h-0.109c0,0-0.439,1.64-0.822,2.57
	L23.945,99.37h-3.552L10.123,76.861c-0.383-0.93-0.765-2.57-0.765-2.57H9.193c0,0,0.165,1.752,0.109,2.733l-2.407,29.61H3.337
	L6.24,68.287h3.937l11.146,25.13c0.493,1.256,0.767,2.239,0.767,2.239h0.109c0,0,0.274-0.983,0.818-2.239l11.145-25.053h3.826
	l3.217,38.271"/>
<path fill="#404041" d="M88.284,106.695H66.818v-3.166V68.287h21.419v3.273H70.64v14.151h14.535v3.281H70.64v14.421l17.643-0.062"/>
<path fill="#404041" d="M113.829,106.901V68.856h11.42c2.622,0,4.699,0,6.829,0.711c3.771,1.368,6.228,4.536,6.228,9.614
	c0,5.743-3.279,9.946-8.523,10.873v0.115c0,0,0.71,0.487,1.311,1.582l6.391,10.926c0.602,1.095,1.311,1.259,2.734,1.259h1.09v3.168
	h-2.074c-3.335,0-3.936-0.494-5.302-2.898l-6.446-11.036c-1.037-1.856-1.802-2.346-4.319-2.346h-5.516v16.077H113.829z
	 M126.669,87.539c4.645,0,7.76-3.166,7.76-8.084c0-3.492-1.531-5.738-4.207-6.775c-1.314-0.495-3.116-0.711-5.082-0.711h-7.488
	v15.57H126.669z"/>
<path fill="#404041" d="M161.992,107.04V68.691h11.42c2.623,0,4.699,0.165,6.828,0.876c3.774,1.368,6.229,4.536,6.229,9.614
	c0,5.743-3.278,9.946-8.522,10.873v0.115c0,0,0.71,0.487,1.311,1.582l6.393,10.926c0.601,1.095,1.312,1.259,2.733,1.259h1.093v3.168
	h-2.078c-3.332,0-3.933-0.494-5.3-2.898l-6.448-11.036c-1.037-1.856-1.803-2.346-4.318-2.346h-5.516l-0.034,16.216H161.992z
	 M174.833,87.539c4.641,0,7.76-3.166,7.76-8.084c0-3.492-1.533-5.738-4.207-6.775c-1.315-0.495-3.117-0.711-5.083-0.711h-7.485
	v15.57H174.833z"/>
<path fill="#404041" d="M276.76,106.625h-22.336v-3.171V68.295h3.826v35.05h18.51"/>
<path fill="#404041" d="M338.962,95.986v2.786c0,3.222,3.989,5.079,8.413,5.079c4.977,0,8.583-2.458,8.583-6.932
	c0-5.031-4.646-6.778-9.618-8.64c-5.025-1.915-10.274-3.933-10.274-10.654c0-6.721,5.414-9.997,11.693-9.997
	c5.468,0,11.095,2.131,11.095,6.011v4.098h-3.662v-2.842c0-2.458-3.989-3.772-7.434-3.772c-4.371,0-7.757,2.13-7.757,6.23
	c0,4.645,4.152,6.118,8.795,7.924c5.572,2.07,11.092,4.202,11.092,11.254c0,6.778-5.409,10.819-12.515,10.819
	c-5.516,0-12.077-2.456-12.077-7.7v-3.663H338.962z"/>
<path fill="#404041" d="M230.106,106.695h-21.467v-3.166V68.287h21.417v3.273h-17.595v14.151h14.536v3.281h-14.536v14.421
	l17.645-0.062"/>
<path fill="#404041" d="M320.044,106.625H297.71v-3.171V68.295h3.823v35.05h18.511"/>
<path fill="#1A1A1A" d="M147.075,9.234c-4.279-3.089-18.924-3.355-31.613-3.534c-14.755-0.203-26.319,1.509-26.319,1.509
	s-3.647,0.157-4.438,2.533h-6.361h-0.145h-3.064h-0.145H68.63c-0.791-2.377-4.438-2.533-4.438-2.533S52.629,5.497,37.873,5.7
	C25.185,5.879,10.54,6.144,6.26,9.234c-2.197,1.589-5.864,1.629-5.864,1.629l0.584,3.633l5.755,0.682
	c1.786,6.024,3.415,11.047,5.025,14.426c2.01,4.218,7.93,5.929,27.193,5.929c11.413,0,16.442-0.889,19.299-1.841
	c2.864-0.954,7.8-3.412,9.747-12.928c0.815-3.985,4.814-6.151,8.67-6.178c3.856,0.027,7.854,2.193,8.67,6.178
	c1.947,9.517,6.883,11.974,9.747,12.928c2.856,0.953,7.886,1.841,19.299,1.841c19.262,0,25.182-1.711,27.193-5.929
	c1.61-3.378,3.239-8.402,5.025-14.426l5.755-0.682l0.583-3.633C152.939,10.862,149.271,10.822,147.075,9.234z M66.186,19.265
	c-0.497,7.093-3.874,11.599-8.21,13.074c-4.026,1.37-9.242,1.723-18.99,1.723c-14.746,0-24.437-0.344-26.314-5.856
	c-1.97-5.784-2.928-9.009-2.928-9.009c-1.52-4.72,0.991-8.108,6.514-8.505c0,0,5.948-0.524,21.164-0.837
	c15.459-0.318,24.258,1.665,24.258,1.665S66.653,12.592,66.186,19.265z M143.591,19.198c0,0-0.958,3.225-2.928,9.009
	c-1.877,5.512-11.568,5.856-26.314,5.856c-9.749,0-14.964-0.353-18.99-1.723c-4.336-1.475-7.713-5.981-8.21-13.074
	c-0.467-6.673,4.507-7.744,4.507-7.744s8.799-1.984,24.258-1.665c15.216,0.313,21.164,0.837,21.164,0.837
	C142.6,11.089,145.111,14.478,143.591,19.198z"/>
<g>
	<line fill="#404041" x1="3.427" y1="138.32" x2="360.094" y2="138.32"/>
	<rect x="3.426" y="137.779" fill="#404041" width="356.668" height="1.081"/>
</g>
</svg>
