<?xml version="1.0" encoding="utf-8"?>
<!-- Generator: Adobe Illustrator 17.1.0, SVG Export Plug-In . SVG Version: 6.00 Build 0)  -->
<!DOCTYPE svg PUBLIC "-//W3C//DTD SVG 1.1//EN" "http://www.w3.org/Graphics/SVG/1.1/DTD/svg11.dtd">
<svg version="1.1" id="Layer_1" xmlns="http://www.w3.org/2000/svg" xmlns:xlink="http://www.w3.org/1999/xlink" x="0px" y="0px"
	 viewBox="0 0 360 157.074" enable-background="new 0 0 360 157.074" xml:space="preserve">
<g>
	<path fill="#00AAE5" d="M94.228,4.822l-7.986,7.341C83.64,11.386,73.323,8.586,60.02,8.586c-13.076,0-24.812,2.7-34.886,8.027
		l-0.586,0.311V44.74l0.598,0.307c0.17,0.089,17.239,8.759,38.204,8.759c8.112,0,15.825-1.288,22.934-3.826l8.795,7.777
		c1.767,1.563,4.039,2.425,6.4,2.425c0.311,0,0.624-0.015,0.937-0.047l20.988-2.054v-6.215l-13.57-3.879
		c-1.91-0.545-3.304-2.186-3.575-4.149l5.067-2.238V20.997l-5.063-1.844c0.277-1.927,1.665-3.577,3.568-4.143l13.573-4.037V4.984
		l-21.959-2.51C98.792,2.161,96.171,3.036,94.228,4.822z M121.198,9.329l-11.997,3.566c-3.059,0.909-5.195,3.773-5.195,7.013v0.773
		l5.114,1.863v17.62l-4.456,1.969l-0.658,0.336v0.718c0,3.196,2.148,6.044,5.222,6.924l11.97,3.419v2.549l-18.997,1.861
		c-2.078,0.19-4.117-0.471-5.659-1.835l-9.781-8.65l-0.62,0.228c-7.036,2.599-14.703,3.915-22.791,3.915
		c-18.235,0-33.443-6.726-36.596-8.222v-25.12c9.621-4.954,20.807-7.466,33.266-7.466c14.746,0,26.049,3.624,26.162,3.66l0.613,0.2
		l8.927-8.205c1.475-1.356,3.458-2.01,5.472-1.782l20.004,2.287V9.329z"/>
	<path fill="#00AAE5" d="M2.835,30.413l-0.409,0.59l0.358,0.622c5.678,9.866,17.433,12.845,17.931,12.968l1.405,0.345v-27.82
		l-1.45,0.421C20.216,17.669,9.449,20.867,2.835,30.413z M19.85,41.959c-3.094-1.048-10.545-4.158-14.726-10.845
		c4.763-6.481,11.733-9.723,14.726-10.882V41.959z"/>
	<path fill="#00AAE5" d="M113.612,40.846l9.792-4.133V25.836l-9.792-4.133V40.846z M115.818,25.029l5.38,2.27v7.95l-5.38,2.27
		V25.029z"/>
	<path fill="#00AAE5" d="M152.069,30.394c-0.696-0.228-1.546-0.528-2.51-0.866c-4.837-1.701-12.146-4.271-17.475-4.271
		c-2.538,0-4.422,0.603-5.601,1.795c-0.965,0.977-1.444,2.316-1.426,3.983c0.028,2.657,1.373,5.825,7.615,5.825
		c5.561,0,13.125-2.502,17.643-3.998l4.673-1.51L152.069,30.394z M132.672,34.869c-5.001,0-5.604-2.201-5.623-3.856
		c-0.011-1.13,0.266-1.967,0.852-2.559c0.788-0.798,2.197-1.203,4.183-1.203c4.897,0,11.848,2.412,16.555,4.066
		C144.181,32.783,137.517,34.869,132.672,34.869z"/>
</g>
<path fill="#58595B" d="M170.49,45.811h2.353v1.04c0,4.932,2.686,9.043,7.891,9.043c3.781,0,7.89-2.249,7.89-9.043V21.316h-6.079
	v-2.191h8.52v2.191h-0.087v25.918c0,8.062-5.259,10.902-10.245,10.902c-4.986,0-10.245-2.84-10.245-10.902V45.811z"/>
<path fill="#58595B" d="M231.659,18.472c10.685,0,19.395,8.547,19.395,19.558c0,11.288-8.709,20.106-19.395,20.106
	c-10.686,0-19.4-8.818-19.4-20.106C212.259,27.019,220.973,18.472,231.659,18.472z M231.659,55.894
	c9.371,0,16.933-7.781,16.933-17.864c0-9.807-7.562-17.314-16.933-17.314c-9.368,0-16.928,7.507-16.928,17.314
	C214.731,48.113,222.291,55.894,231.659,55.894z"/>
<path fill="#58595B" d="M302.043,19.183v38.094h-2.356v-1.981V39.349h-24.326v15.947v2.125h-2.359V19.114h2.359v2.202v15.84h24.326
	v-15.84v-2.133H302.043z"/>
<path fill="#58595B" d="M358.621,19.138v38.342h-2.194l-23.833-32.816c-0.492-0.716-1.042-1.978-1.042-1.978h-0.108
	c0,0,0.216,1.43,0.16,2.25v30.359v2.266h-2.354V19.125h2.135l23.894,32.766c0.492,0.713,1.04,1.975,1.04,1.975h0.107
	c0,0-0.216-1.427-0.16-2.247V21.316v-2.178"/>
<path fill="#404041" d="M36.51,122.492L33.982,92.8c-0.056-0.984,0.109-2.741,0.109-2.741h-0.109c0,0-0.44,1.644-0.824,2.577
	l-10.245,22.571h-3.562L9.052,92.637c-0.384-0.933-0.768-2.577-0.768-2.577H8.12c0,0,0.165,1.757,0.109,2.741l-2.414,29.692H2.247
	l2.911-38.454h3.948l11.177,25.2c0.494,1.26,0.769,2.245,0.769,2.245h0.109c0,0,0.275-0.986,0.821-2.245l11.176-25.123h3.837
	l3.226,38.377"/>
<path fill="#404041" d="M87.431,122.553H65.905v-3.175v-35.34h21.478v3.282H69.738v14.191h14.576v3.29H69.738v14.462l17.693-0.063"
	/>
<path fill="#404041" d="M113.048,122.76V84.608H124.5c2.629,0,4.712,0,6.848,0.713c3.782,1.372,6.246,4.549,6.246,9.64
	c0,5.759-3.288,9.974-8.547,10.903v0.115c0,0,0.712,0.489,1.315,1.587l6.409,10.956c0.603,1.098,1.315,1.263,2.742,1.263h1.093
	v3.177h-2.08c-3.344,0-3.947-0.495-5.317-2.906l-6.464-11.067c-1.04-1.861-1.807-2.353-4.331-2.353h-5.532v16.122H113.048z
	 M125.923,103.344c4.658,0,7.782-3.175,7.782-8.107c0-3.502-1.536-5.754-4.218-6.794c-1.318-0.497-3.125-0.713-5.096-0.713h-7.509
	v15.614H125.923z"/>
<path fill="#404041" d="M161.345,122.9V84.443h11.451c2.63,0,4.712,0.165,6.847,0.878c3.784,1.372,6.246,4.549,6.246,9.64
	c0,5.759-3.287,9.974-8.546,10.903v0.115c0,0,0.712,0.489,1.314,1.587l6.411,10.956c0.603,1.098,1.316,1.263,2.741,1.263h1.096
	v3.177h-2.084c-3.342,0-3.944-0.495-5.315-2.906l-6.466-11.067c-1.04-1.861-1.808-2.353-4.33-2.353h-5.531l-0.034,16.261H161.345z
	 M174.222,103.344c4.654,0,7.781-3.175,7.781-8.107c0-3.502-1.537-5.754-4.218-6.794c-1.319-0.497-3.125-0.713-5.097-0.713h-7.506
	v15.614H174.222z"/>
<path fill="#404041" d="M276.433,122.483h-22.398v-3.18V84.046h3.837v35.148h18.561"/>
<path fill="#404041" d="M338.808,111.815v2.793c0,3.231,4,5.093,8.437,5.093c4.991,0,8.607-2.465,8.607-6.951
	c0-5.045-4.659-6.797-9.645-8.664c-5.039-1.92-10.302-3.944-10.302-10.684c0-6.739,5.429-10.025,11.726-10.025
	c5.483,0,11.126,2.137,11.126,6.028v4.109h-3.672v-2.85c0-2.465-4-3.782-7.454-3.782c-4.383,0-7.778,2.136-7.778,6.247
	c0,4.658,4.164,6.135,8.82,7.946c5.587,2.076,11.123,4.214,11.123,11.285c0,6.797-5.424,10.849-12.549,10.849
	c-5.531,0-12.11-2.463-12.11-7.722v-3.674H338.808z"/>
<path fill="#404041" d="M229.649,122.553h-21.527v-3.175v-35.34h21.477v3.282h-17.645v14.191h14.577v3.29h-14.577v14.462
	l17.694-0.063"/>
<path fill="#404041" d="M319.838,122.483h-22.397v-3.18V84.046h3.834v35.148h18.563"/>
<g>
	<line fill="#404041" x1="2.337" y1="154.266" x2="360" y2="154.266"/>
	<rect x="2.337" y="153.724" fill="#404041" width="357.663" height="1.084"/>
</g>
</svg>
