<?xml version="1.0" encoding="utf-8"?>
<!-- Generator: Adobe Illustrator 17.1.0, SVG Export Plug-In . SVG Version: 6.00 Build 0)  -->
<!DOCTYPE svg PUBLIC "-//W3C//DTD SVG 1.1//EN" "http://www.w3.org/Graphics/SVG/1.1/DTD/svg11.dtd">
<svg version="1.1" id="Layer_1" xmlns="http://www.w3.org/2000/svg" xmlns:xlink="http://www.w3.org/1999/xlink" x="0px" y="0px"
	 viewBox="0 0 360 163.372" enable-background="new 0 0 360 163.372" xml:space="preserve">
<g>
	<path fill="#58595B" d="M171.23,52.404h2.35v1.039c0,4.924,2.682,9.029,7.88,9.029c3.775,0,7.879-2.245,7.879-9.029V27.945h-6.07
		v-2.188h8.508v2.188h-0.087v25.88c0,8.05-5.251,10.886-10.23,10.886c-4.979,0-10.23-2.836-10.23-10.886V52.404z"/>
	<path fill="#58595B" d="M232.309,25.104c10.67,0,19.367,8.535,19.367,19.53c0,11.272-8.697,20.077-19.367,20.077
		c-10.67,0-19.371-8.806-19.371-20.077C212.938,33.639,221.639,25.104,232.309,25.104z M232.309,62.472
		c9.357,0,16.908-7.77,16.908-17.838c0-9.793-7.551-17.289-16.908-17.289c-9.354,0-16.904,7.496-16.904,17.289
		C215.406,54.702,222.955,62.472,232.309,62.472z"/>
	<path fill="#58595B" d="M302.591,25.815v38.038h-2.353v-1.978V45.951h-24.291v15.924v2.122h-2.356V25.746h2.356v2.199v15.817
		h24.291V27.945v-2.13H302.591z"/>
	<path fill="#58595B" d="M359.087,25.77v38.287h-2.191l-23.798-32.768c-0.491-0.715-1.04-1.975-1.04-1.975h-0.107
		c0,0,0.216,1.428,0.16,2.247v30.315v2.263h-2.351V25.757h2.132l23.859,32.719c0.491,0.712,1.039,1.972,1.039,1.972h0.107
		c0,0-0.216-1.424-0.16-2.244V27.945V25.77"/>
	<path fill="#404041" d="M37.444,128.974l-2.525-29.649c-0.056-0.983,0.109-2.737,0.109-2.737h-0.109c0,0-0.439,1.642-0.823,2.573
		L23.867,121.7H20.31L10.026,99.162c-0.383-0.931-0.766-2.573-0.766-2.573H9.094c0,0,0.165,1.754,0.109,2.737l-2.41,29.649H3.231
		l2.907-38.399h3.943l11.161,25.163c0.494,1.258,0.768,2.242,0.768,2.242h0.109c0,0,0.274-0.984,0.819-2.242l11.16-25.086h3.831
		l3.222,38.322"/>
	<path fill="#404041" d="M88.291,129.035H66.796v-3.17V90.576h21.447v3.278h-17.62v14.17h14.555v3.286H70.624v14.441l17.667-0.062"
		/>
	<path fill="#404041" d="M113.87,129.242V91.145h11.436c2.625,0,4.705,0,6.838,0.712c3.776,1.37,6.237,4.542,6.237,9.626
		c0,5.75-3.283,9.959-8.534,10.888v0.115c0,0,0.711,0.488,1.313,1.584l6.4,10.94c0.603,1.096,1.313,1.261,2.738,1.261h1.091v3.172
		h-2.077c-3.339,0-3.941-0.495-5.309-2.902l-6.454-11.051c-1.039-1.858-1.805-2.349-4.325-2.349h-5.524v16.098H113.87z
		 M126.727,109.854c4.651,0,7.771-3.17,7.771-8.095c0-3.497-1.533-5.746-4.212-6.784c-1.316-0.496-3.12-0.712-5.089-0.712h-7.498
		v15.591H126.727z"/>
	<path fill="#404041" d="M162.098,129.381v-38.4h11.435c2.626,0,4.705,0.165,6.837,0.877c3.779,1.37,6.237,4.542,6.237,9.626
		c0,5.75-3.283,9.959-8.534,10.888v0.115c0,0,0.711,0.488,1.312,1.584l6.402,10.94c0.602,1.096,1.314,1.261,2.737,1.261h1.095v3.172
		h-2.081c-3.337,0-3.939-0.495-5.307-2.902l-6.456-11.051c-1.039-1.858-1.805-2.349-4.324-2.349h-5.523l-0.034,16.238H162.098z
		 M174.955,109.854c4.648,0,7.77-3.17,7.77-8.095c0-3.497-1.535-5.746-4.212-6.784c-1.317-0.496-3.121-0.712-5.089-0.712h-7.495
		v15.591H174.955z"/>
	<path fill="#404041" d="M277.018,128.965h-22.366v-3.175V90.584h3.831v35.097h18.534"/>
	<path fill="#404041" d="M339.303,118.312v2.789c0,3.227,3.995,5.086,8.425,5.086c4.984,0,8.594-2.461,8.594-6.941
		c0-5.038-4.652-6.787-9.631-8.652c-5.032-1.917-10.288-3.939-10.288-10.668c0-6.73,5.421-10.011,11.709-10.011
		c5.475,0,11.11,2.133,11.11,6.019v4.103h-3.667v-2.845c0-2.462-3.995-3.777-7.444-3.777c-4.377,0-7.767,2.133-7.767,6.238
		c0,4.651,4.158,6.126,8.807,7.935c5.579,2.073,11.107,4.208,11.107,11.269c0,6.787-5.416,10.833-12.531,10.833
		c-5.523,0-12.093-2.46-12.093-7.711v-3.668H339.303z"/>
	<path fill="#404041" d="M230.302,129.035h-21.495v-3.17V90.576h21.446v3.278h-17.619v14.17h14.556v3.286h-14.556v14.441
		l17.669-0.062"/>
	<path fill="#404041" d="M320.361,128.965h-22.364v-3.175V90.584h3.828v35.097h18.536"/>
	<g>
		<line fill="#404041" x1="3.321" y1="160.702" x2="360.464" y2="160.702"/>
		<rect x="3.32" y="160.161" fill="#404041" width="357.144" height="1.083"/>
	</g>
	<g>
		<path fill="none" d="M86.078,65.918L86.078,65.918c-0.12,0.304-0.29,0.572-0.495,0.792C85.788,66.49,85.959,66.222,86.078,65.918z
			"/>
		<path fill="none" d="M85.628,63.16c0.203,0.23,0.361,0.514,0.473,0.83h0C85.989,63.674,85.831,63.39,85.628,63.16z"/>
		<path fill="none" d="M85.862,67.175c0.166,0.377,0.29,0.842,0.354,1.11C86.152,68.017,86.029,67.553,85.862,67.175z"/>
		<path fill="none" d="M136.89,30.433c-0.612,0.582-1.286,0.99-1.929,1.275C135.604,31.423,136.278,31.015,136.89,30.433z"/>
		<path fill="none" d="M87.794,66.816c0.178,0.486,0.293,0.965,0.362,1.307l0.466,2.309h-2.356h-7.552h-2.356l0.466-2.309
			c0.069-0.342,0.184-0.821,0.362-1.307c-0.128-0.286-0.224-0.587-0.291-0.897H55.628l-7.75,7.418h67.696l-6.946-7.418H88.085
			C88.018,66.229,87.922,66.53,87.794,66.816z"/>
		<path fill="none" d="M137.478,19.055c0.935,1.174,1.616,2.883,1.616,5.367c0,2.485-0.68,4.193-1.616,5.368
			c0.935-1.174,1.616-2.883,1.616-5.368C139.094,21.938,138.414,20.23,137.478,19.055z"/>
		<path fill="none" d="M134.961,31.708c-0.643,0.285-1.255,0.448-1.745,0.542C133.706,32.157,134.318,31.994,134.961,31.708z"/>
		<path fill="none" d="M134.961,17.138c0.643,0.285,1.317,0.693,1.929,1.275C136.278,17.83,135.604,17.423,134.961,17.138z"/>
		<path fill="none" d="M86.22,61.617c-0.059,0.261-0.174,0.714-0.33,1.084C86.046,62.331,86.161,61.878,86.22,61.617z"/>
		<path fill="none" d="M133.216,16.596c0.49,0.093,1.102,0.256,1.745,0.542C134.318,16.852,133.706,16.689,133.216,16.596z"/>
		<path fill="#B4D234" d="M116.076,3.656l-67.51-0.007c-2.964,0-5.75,1.154-7.845,3.25c-2.095,2.096-3.249,4.882-3.248,7.845
			l0.005,34.85c0,6.462,5.04,11.474,11.466,11.474l27.778,0.176l0.1,0.521c0.064,0.337,0.173,0.812,0.343,1.294
			c-0.127,0.296-0.221,0.609-0.284,0.93H54.854l-11.78,11.274h76.947L109.463,63.99H88.101c-0.064-0.321-0.157-0.634-0.284-0.93
			c0.17-0.482,0.279-0.957,0.343-1.294l0.1-0.521h27.314c6.641,0,11.934-5.429,11.934-11.947l-0.004-34.216
			C127.502,8.781,122.374,3.656,116.076,3.656z M115.573,73.336H47.877l7.75-7.418h21.267c0.067,0.31,0.163,0.612,0.291,0.897
			c-0.178,0.486-0.293,0.965-0.362,1.307l-0.466,2.309h2.356h7.552h2.356l-0.466-2.309c-0.069-0.342-0.184-0.821-0.362-1.307
			c0.128-0.286,0.224-0.587,0.291-0.897h20.542L115.573,73.336z M86.266,64.916c0,0.362-0.068,0.7-0.187,1.002h0
			c-0.12,0.304-0.29,0.572-0.495,0.792c0.102,0.11,0.196,0.277,0.279,0.465c0.166,0.377,0.29,0.842,0.354,1.11
			c0.032,0.134,0.049,0.219,0.049,0.219h-7.552c0,0,0.107-0.529,0.287-1.034c0.108-0.302,0.242-0.596,0.396-0.76
			c-0.205-0.219-0.375-0.486-0.495-0.789c-0.12-0.303-0.188-0.642-0.188-1.005c0-0.702,0.252-1.319,0.638-1.756
			c-0.386-0.438-0.638-1.756-0.638-1.756h7.552c0,0-0.016,0.082-0.045,0.213c-0.059,0.261-0.174,0.714-0.33,1.084
			c-0.078,0.185-0.166,0.35-0.262,0.459c0.203,0.23,0.361,0.515,0.473,0.83h0C86.201,64.274,86.266,64.583,86.266,64.916z
			 M115.707,59.171H48.982c-0.881,0-1.718-0.158-2.529-0.382L46.44,19.262c0-3.805,3.096-6.9,6.9-6.9h58.3
			c3.804,0,6.899,3.096,6.899,6.9l0.013,39.441C117.645,58.978,116.702,59.171,115.707,59.171z M120.467,19.262
			c0-4.867-3.96-8.828-8.827-8.828h-58.3c-4.867,0-8.828,3.961-8.828,8.828l0.012,38.756c-3.028-1.61-5.118-4.761-5.119-8.423
			L39.4,14.745c0-2.449,0.953-4.751,2.684-6.482c1.731-1.731,4.033-2.685,6.483-2.685l67.508,0.007c5.237,0,9.498,4.261,9.5,9.498
			l0.004,34.216c0,3.704-2.075,6.899-5.1,8.588L120.467,19.262z"/>
		<path fill="#B4D234" d="M23.955,24.423c0,9.767,8.806,9.879,8.895,9.879h1.928v-1.928V16.472v-1.928H32.85
			C32.761,14.544,23.955,14.656,23.955,24.423z M32.85,32.374c0,0-0.435,0-1.089-0.124c-0.49-0.093-1.102-0.256-1.745-0.542
			c-0.214-0.095-0.432-0.204-0.65-0.328c-0.435-0.248-0.871-0.559-1.279-0.947c-0.204-0.194-0.401-0.408-0.589-0.643
			c-0.935-1.174-1.616-2.883-1.616-5.368c0-2.485,0.68-4.193,1.616-5.367c0.187-0.235,0.384-0.448,0.589-0.643
			c0.408-0.388,0.844-0.699,1.279-0.947c0.218-0.124,0.435-0.233,0.65-0.328c0.643-0.285,1.255-0.448,1.745-0.542
			c0.653-0.124,1.089-0.124,1.089-0.124V32.374z"/>
		<path fill="#B4D234" d="M132.127,14.544h-1.928v1.928v15.903v1.928h1.928c0.089,0,8.895-0.113,8.895-9.879
			C141.023,14.656,132.216,14.544,132.127,14.544z M137.478,29.79c-0.187,0.235-0.384,0.449-0.589,0.643
			c-0.612,0.582-1.286,0.99-1.929,1.275c-0.643,0.285-1.255,0.448-1.745,0.542c-0.653,0.124-1.089,0.124-1.089,0.124V16.472
			c0,0,0.435,0,1.089,0.124c0.49,0.093,1.102,0.256,1.745,0.542c0.643,0.285,1.317,0.693,1.929,1.275
			c0.204,0.194,0.401,0.408,0.589,0.643c0.935,1.174,1.616,2.883,1.616,5.367C139.094,26.908,138.414,28.616,137.478,29.79z"/>
		<path fill="#B4D234" d="M100.385,18.366c-7.724,0-14.008,6.284-14.008,14.008s6.284,14.008,14.008,14.008
			s14.008-6.284,14.008-14.008S108.109,18.366,100.385,18.366z M100.385,44.454c-6.671,0-12.08-5.408-12.08-12.08
			s5.408-12.08,12.08-12.08c6.671,0,12.08,5.408,12.08,12.08S107.056,44.454,100.385,44.454z"/>
		<path fill="#B4D234" d="M100.483,22.369c-5.517,0-10.005,4.488-10.005,10.005s4.488,10.006,10.005,10.006
			s10.006-4.489,10.006-10.006S106,22.369,100.483,22.369z M107.602,28.639h-3.036v-3.194
			C105.856,26.208,106.901,27.311,107.602,28.639z M103.12,28.639H98v-3.911c0.787-0.257,1.611-0.431,2.483-0.431
			c0.928,0,1.806,0.189,2.637,0.479V28.639z M103.12,30.085v5.029H98v-5.029H103.12z M96.554,25.361v3.278h-3.19
			C94.092,27.259,95.196,26.125,96.554,25.361z M96.554,30.085v5.029h-3.637c-0.313-0.86-0.511-1.774-0.511-2.741
			c0-0.8,0.153-1.558,0.371-2.289H96.554z M96.554,36.561v2.827c-1.209-0.68-2.222-1.646-2.944-2.827H96.554z M98,40.021v-3.46h5.12
			v3.412c-0.831,0.29-1.709,0.479-2.637,0.479C99.611,40.452,98.787,40.278,98,40.021z M104.566,39.304v-2.743h2.791
			C106.665,37.692,105.708,38.629,104.566,39.304z M108.561,32.374c0,0.966-0.199,1.881-0.511,2.741h-3.484v-5.029h3.624
			C108.408,30.816,108.561,31.574,108.561,32.374z"/>
		<path fill="#B4D234" d="M64.607,18.366c-7.724,0-14.008,6.284-14.008,14.008s6.284,14.008,14.008,14.008
			s14.008-6.284,14.008-14.008S72.331,18.366,64.607,18.366z M68.199,43.911c-0.378,0.118-0.764,0.217-1.158,0.298
			c-0.786,0.161-1.601,0.245-2.434,0.245c-0.834,0-1.648-0.084-2.435-0.245c-0.393-0.08-0.779-0.18-1.158-0.298
			c-4.917-1.529-8.488-6.116-8.488-11.537s3.57-10.007,8.488-11.537c0.378-0.118,0.764-0.217,1.158-0.298
			c0.786-0.161,1.601-0.245,2.435-0.245c0.834,0,1.648,0.084,2.434,0.245c0.393,0.08,0.779,0.18,1.158,0.298
			c4.917,1.529,8.488,6.116,8.488,11.537S73.117,42.382,68.199,43.911z"/>
		<path fill="#B4D234" d="M74.711,32.374c0-5.517-4.488-10.005-10.005-10.005s-10.006,4.488-10.006,10.005
			S59.188,42.38,64.705,42.38S74.711,37.891,74.711,32.374z M72.782,32.374c0,0.966-0.199,1.881-0.511,2.741h-3.483v-5.029h3.623
			C72.63,30.816,72.782,31.574,72.782,32.374z M67.343,35.115h-5.12v-5.029h5.12V35.115z M68.789,28.639v-3.194
			c1.289,0.763,2.335,1.866,3.035,3.194H68.789z M67.343,24.776v3.863h-5.12v-3.911c0.787-0.257,1.611-0.431,2.483-0.431
			C65.634,24.297,66.512,24.487,67.343,24.776z M60.777,25.361v3.278h-3.19C58.314,27.259,59.418,26.125,60.777,25.361z
			 M60.777,30.085v5.029h-3.638c-0.313-0.86-0.511-1.774-0.511-2.741c0-0.8,0.153-1.558,0.371-2.289H60.777z M60.777,36.561v2.827
			c-1.209-0.68-2.223-1.646-2.945-2.827H60.777z M62.223,36.561h5.12v3.412c-0.831,0.29-1.709,0.479-2.637,0.479
			c-0.872,0-1.696-0.174-2.483-0.431V36.561z M68.789,39.304v-2.743h2.79C70.887,37.692,69.931,38.628,68.789,39.304z"/>
	</g>
</g>
</svg>
