<?xml version="1.0" encoding="utf-8"?>
<!-- Generator: Adobe Illustrator 17.1.0, SVG Export Plug-In . SVG Version: 6.00 Build 0)  -->
<!DOCTYPE svg PUBLIC "-//W3C//DTD SVG 1.1//EN" "http://www.w3.org/Graphics/SVG/1.1/DTD/svg11.dtd">
<svg version="1.1" id="Layer_1" xmlns="http://www.w3.org/2000/svg" xmlns:xlink="http://www.w3.org/1999/xlink" x="0px" y="0px"
	 viewBox="0 0 216 216" enable-background="new 0 0 216 216" xml:space="preserve">
<rect fill="#1A1A1A" width="216" height="216"/>
<path fill="#FFFFFF" d="M161.824,94.895c-3.265-2.357-14.437-2.559-24.117-2.696c-11.256-0.155-20.078,1.151-20.078,1.151
	s-2.782,0.119-3.385,1.933h-4.852h-0.111h-2.337h-0.111h-4.852c-0.604-1.813-3.385-1.933-3.385-1.933s-8.821-1.306-20.078-1.151
	c-9.68,0.137-20.852,0.339-24.117,2.696c-1.676,1.212-4.474,1.242-4.474,1.242l0.445,2.771l4.39,0.521
	c1.362,4.595,2.605,8.427,3.834,11.005c1.534,3.217,6.05,4.523,20.744,4.523c8.706,0,12.543-0.678,14.722-1.405
	c2.185-0.728,5.95-2.603,7.436-9.863c0.622-3.04,3.672-4.693,6.614-4.713c2.942,0.02,5.992,1.673,6.614,4.713
	c1.485,7.26,5.251,9.135,7.436,9.863c2.179,0.727,6.016,1.405,14.722,1.405c14.695,0,19.211-1.305,20.744-4.523
	c1.228-2.577,2.471-6.409,3.834-11.005l4.39-0.521l0.445-2.771C166.298,96.138,163.5,96.107,161.824,94.895z M100.116,102.548
	c-0.379,5.411-2.955,8.849-6.263,9.974c-3.071,1.045-7.05,1.314-14.487,1.314c-11.249,0-18.642-0.262-20.074-4.467
	c-1.503-4.412-2.234-6.873-2.234-6.873c-1.16-3.601,0.756-6.185,4.969-6.488c0,0,4.537-0.4,16.145-0.639
	c11.793-0.243,18.506,1.27,18.506,1.27S100.473,97.457,100.116,102.548z M159.166,102.496c0,0-0.731,2.46-2.234,6.873
	c-1.432,4.205-8.825,4.467-20.074,4.467c-7.437,0-11.416-0.269-14.487-1.314c-3.308-1.125-5.884-4.563-6.263-9.974
	c-0.356-5.091,3.438-5.908,3.438-5.908s6.712-1.513,18.506-1.27c11.607,0.239,16.145,0.639,16.145,0.639
	C158.41,96.311,160.326,98.896,159.166,102.496z"/>
</svg>
