<?xml version="1.0" encoding="utf-8"?>
<!-- Generator: Adobe Illustrator 17.1.0, SVG Export Plug-In . SVG Version: 6.00 Build 0)  -->
<!DOCTYPE svg PUBLIC "-//W3C//DTD SVG 1.1//EN" "http://www.w3.org/Graphics/SVG/1.1/DTD/svg11.dtd">
<svg version="1.1" id="Layer_1" xmlns="http://www.w3.org/2000/svg" xmlns:xlink="http://www.w3.org/1999/xlink" x="0px" y="0px"
	 viewBox="0 0 216 216" enable-background="new 0 0 216 216" xml:space="preserve">
<rect fill="#0097D6" width="216" height="216"/>
<g>
	<path fill="#FFFFFF" d="M127.181,82.464l-6.657,6.119c-2.169-0.648-10.768-2.982-21.858-2.982c-10.899,0-20.682,2.251-29.078,6.691
		L69.1,92.552v23.186l0.498,0.256c0.141,0.074,14.369,7.301,31.845,7.301c6.762,0,13.191-1.074,19.116-3.189l7.331,6.482
		c1.473,1.303,3.367,2.021,5.335,2.021c0.259,0,0.52-0.013,0.781-0.039l17.494-1.712v-5.181l-11.311-3.233
		c-1.592-0.454-2.754-1.822-2.98-3.458l4.223-1.866V95.947l-4.22-1.537c0.231-1.606,1.388-2.982,2.974-3.453l11.314-3.365V82.6
		l-18.304-2.092C130.985,80.247,128.8,80.976,127.181,82.464z M149.661,86.221l-10,2.972c-2.549,0.758-4.33,3.145-4.33,5.846v0.644
		l4.263,1.553v14.687l-3.714,1.641l-0.549,0.28v0.599c0,2.664,1.79,5.038,4.352,5.772l9.978,2.85v2.125l-15.834,1.551
		c-1.732,0.159-3.431-0.393-4.717-1.529l-8.153-7.21l-0.517,0.19c-5.864,2.166-12.255,3.263-18.997,3.263
		c-15.199,0-27.876-5.607-30.504-6.853V93.664c8.019-4.129,17.343-6.223,27.728-6.223c12.292,0,21.713,3.021,21.807,3.051
		l0.511,0.167l7.441-6.839c1.229-1.13,2.883-1.676,4.561-1.485l16.674,1.907V86.221z"/>
	<path fill="#FFFFFF" d="M51.002,103.795l-0.341,0.492l0.299,0.519c4.733,8.224,14.531,10.707,14.946,10.809l1.171,0.288V92.714
		l-1.209,0.351C65.489,93.173,56.514,95.839,51.002,103.795z M65.184,113.42c-2.579-0.874-8.79-3.466-12.274-9.039
		c3.97-5.402,9.78-8.104,12.274-9.071V113.42z"/>
	<path fill="#FFFFFF" d="M143.338,112.492l8.162-3.445v-9.066l-8.162-3.445V112.492z M145.177,99.308l4.484,1.892v6.627
		l-4.484,1.892V99.308z"/>
	<path fill="#FFFFFF" d="M175.393,103.78c-0.58-0.19-1.289-0.44-2.092-0.721c-4.032-1.418-10.124-3.56-14.566-3.56
		c-2.116,0-3.686,0.503-4.668,1.496c-0.805,0.814-1.204,1.93-1.188,3.32c0.024,2.215,1.144,4.855,6.347,4.855
		c4.635,0,10.94-2.086,14.706-3.332l3.895-1.259L175.393,103.78z M159.226,107.51c-4.168,0-4.671-1.834-4.687-3.214
		c-0.009-0.942,0.222-1.639,0.71-2.133c0.657-0.665,1.831-1.003,3.486-1.003c4.082,0,9.876,2.01,13.799,3.389
		C168.818,105.771,163.263,107.51,159.226,107.51z"/>
</g>
</svg>
